<svg xmlns="http://www.w3.org/2000/svg" viewBox="0 0 800 1000" role="img" aria-label="Beauty Mirror Case aperto">
  <defs>
    <linearGradient id="bgOpen" x1="0" y1="0" x2="0" y2="1">
      <stop offset="0" stop-color="#efe5d8"/>
      <stop offset="1" stop-color="#f7f1ea"/>
    </linearGradient>
    <linearGradient id="caseOpen" x1="0" y1="0" x2="1" y2="1">
      <stop offset="0" stop-color="#e9c9c4"/>
      <stop offset="1" stop-color="#d49b96"/>
    </linearGradient>
    <linearGradient id="mirror" x1="0" y1="0" x2="1" y2="1">
      <stop offset="0" stop-color="#dfe5e8"/>
      <stop offset="0.5" stop-color="#f1f4f6"/>
      <stop offset="1" stop-color="#cfd6da"/>
    </linearGradient>
    <radialGradient id="shadowOpen" cx="0.5" cy="0.5" r="0.6">
      <stop offset="0" stop-color="rgba(31,29,28,0.3)"/>
      <stop offset="1" stop-color="rgba(31,29,28,0)"/>
    </radialGradient>
  </defs>
  <rect width="800" height="1000" fill="url(#bgOpen)"/>
  <ellipse cx="400" cy="850" rx="320" ry="36" fill="url(#shadowOpen)"/>
  <g transform="translate(120,200)">
    <rect width="240" height="600" rx="20" fill="url(#caseOpen)"/>
    <rect x="20" y="20" width="200" height="560" rx="12" fill="rgba(255,255,255,0.18)"/>
    <rect x="40" y="50" width="160" height="280" rx="6" fill="url(#mirror)"/>
    <rect x="60" y="370" width="120" height="160" rx="50" fill="#b8655f"/>
    <rect x="60" y="370" width="120" height="160" rx="50" fill="none" stroke="rgba(247,241,234,0.4)"/>
    <text x="120" y="455" text-anchor="middle" font-family="sans-serif" font-size="11" fill="#f7f1ea" letter-spacing="3">CAELIA</text>
  </g>
  <g transform="translate(440,200)">
    <rect width="240" height="600" rx="20" fill="url(#caseOpen)"/>
    <rect x="20" y="20" width="200" height="560" rx="12" fill="rgba(255,255,255,0.18)"/>
    <rect x="50" y="60" width="140" height="20" rx="10" fill="#2a2624"/>
    <rect x="50" y="100" width="140" height="20" rx="10" fill="#1f1d1c"/>
    <rect x="50" y="140" width="140" height="20" rx="10" fill="#3d3431"/>
    <ellipse cx="120" cy="320" rx="80" ry="30" fill="rgba(184,101,95,0.6)"/>
    <ellipse cx="120" cy="320" rx="50" ry="20" fill="rgba(184,101,95,0.8)"/>
    <rect x="40" y="420" width="160" height="80" rx="6" fill="rgba(247,241,234,0.25)"/>
  </g>
  <g transform="translate(220,860)">
    <text text-anchor="middle" font-family="sans-serif" font-size="13" fill="#2a2624" letter-spacing="6">APERTO</text>
  </g>
</svg>